<?xml version="1.0" encoding="utf-8"?>
<!-- Generator: Adobe Illustrator 20.1.0, SVG Export Plug-In . SVG Version: 6.00 Build 0)  -->
<svg version="1.1" id="Layer_1" xmlns="http://www.w3.org/2000/svg" xmlns:xlink="http://www.w3.org/1999/xlink" x="0px" y="0px"
	 viewBox="0 0 123.3 85.6" style="enable-background:new 0 0 123.3 85.6;" xml:space="preserve">
<g>
	<path d="M123.2,7.3L123.2,7.3c0-2.5-1.3-4.7-3.2-6.1c-1.2-0.8-2.6-1.2-4.1-1.2l0,0H7.3C5.8,0,4.4,0.5,3.2,1.2C1.3,2.5,0,4.7,0,7.2
		l0,0v71.1c0,4,3.3,7.3,7.3,7.3l0,0l0,0H116l0,0l0,0c0.5,0,1-0.1,1.5-0.1c0.5-0.1,0.9-0.2,1.4-0.4c0.2-0.1,0.4-0.2,0.6-0.3
		c0.8-0.4,1.6-1.1,2.2-1.8c0.1-0.2,0.3-0.4,0.4-0.6c0.5-0.8,0.9-1.7,1.1-2.6c0.1-0.5,0.1-1,0.1-1.5L123.2,7.3z M108.6,14.6v56.5
		H14.5V14.6H108.6z"/>
	<path d="M85.7,42.8l17-17c1.3-1.3,1.3-3.5,0-4.8s-3.5-1.3-4.8,0L61.6,57.3L25.3,21c-1.3-1.3-3.5-1.3-4.8,0s-1.3,3.5,0,4.8l17,17
		l-17,17c-1.3,1.3-1.3,3.5,0,4.8s3.5,1.3,4.8,0l17-17l17,17l0,0c0.7,0.7,1.5,1,2.4,1s1.7-0.3,2.4-1l0,0l17-17l17,17
		c1.3,1.3,3.5,1.3,4.8,0s1.3-3.5,0-4.8L85.7,42.8z"/>
</g>
</svg>
