<?xml version="1.0" encoding="utf-8"?>
<!-- Generator: Adobe Illustrator 20.1.0, SVG Export Plug-In . SVG Version: 6.00 Build 0)  -->
<svg version="1.1" id="Layer_1" xmlns="http://www.w3.org/2000/svg" xmlns:xlink="http://www.w3.org/1999/xlink" x="0px" y="0px"
	 viewBox="0 0 126 105" style="enable-background:new 0 0 126 105;" xml:space="preserve">
<g>
	<g>
		<path d="M81,46.4V70l45-35L81,0v23.3c-30.5,3.5-54.6,27.9-57.6,58.6C36,61.7,57.6,48.4,81,46.4z"/>
	</g>
	<g>
		<path d="M93.6,76.3v14.2H14.5V34h18c0.1-0.1,0.2-0.3,0.4-0.4C38.5,27.9,45,23.1,52,19.4H7.3l0,0c-1.5,0-2.9,0.5-4.1,1.2
			c-1.9,1.3-3.2,3.5-3.2,6l0,0v71.1l0,0l0,0c0,4,3.3,7.3,7.3,7.3H101l0,0l0,0c4,0,7.3-3.3,7.3-7.3V64.9L93.6,76.3z"/>
	</g>
</g>
</svg>
