<svg xmlns="http://www.w3.org/2000/svg" viewBox="0 0 123.3 85.6"><path d="M123.2 7.3c0-2.5-1.3-4.7-3.2-6.1-1.2-.8-2.6-1.2-4.1-1.2H7.3C5.8 0 4.4.5 3.2 1.2 1.3 2.5 0 4.7 0 7.2v71.1c0 4 3.3 7.3 7.3 7.3H116c.5 0 1-.1 1.5-.1.5-.1.9-.2 1.4-.4l.6-.3c.8-.4 1.6-1.1 2.2-1.8.1-.2.3-.4.4-.6.5-.8.9-1.7 1.1-2.6.1-.5.1-1 .1-1.5l-.1-71zm-14.6 7.3v56.5H14.5V14.6h94.1z"/><path d="M85.7 42.8l17-17c1.3-1.3 1.3-3.5 0-4.8s-3.5-1.3-4.8 0L61.6 57.3 25.3 21c-1.3-1.3-3.5-1.3-4.8 0s-1.3 3.5 0 4.8l17 17-17 17c-1.3 1.3-1.3 3.5 0 4.8s3.5 1.3 4.8 0l17-17 17 17c.7.7 1.5 1 2.4 1s1.7-.3 2.4-1l17-17 17 17c1.3 1.3 3.5 1.3 4.8 0s1.3-3.5 0-4.8l-17.2-17z"/></svg>