<?xml version="1.0" encoding="iso-8859-1"?><svg xmlns="http://www.w3.org/2000/svg" xmlns:xlink="http://www.w3.org/1999/xlink"><symbol viewBox="0 0 41.999 41.999" id="icon-arrow-filled" xmlns="http://www.w3.org/2000/svg"><path d="M36.068 20.176l-29-20A1 1 0 1 0 5.5.999v40a1 1 0 0 0 1.568.823l29-20a.999.999 0 0 0 0-1.646z"/></symbol><symbol viewBox="0 0 212.982 212.982" id="icon-cross" xmlns="http://www.w3.org/2000/svg"><path d="M131.804 106.491l75.936-75.936c6.99-6.99 6.99-18.323 0-25.312-6.99-6.99-18.322-6.99-25.312 0L106.491 81.18 30.554 5.242c-6.99-6.99-18.322-6.99-25.312 0-6.989 6.99-6.989 18.323 0 25.312l75.937 75.936-75.937 75.937c-6.989 6.99-6.989 18.323 0 25.312 6.99 6.99 18.322 6.99 25.312 0l75.937-75.937 75.937 75.937c6.989 6.99 18.322 6.99 25.312 0 6.99-6.99 6.99-18.322 0-25.312l-75.936-75.936z" fill-rule="evenodd" clip-rule="evenodd"/></symbol><symbol viewBox="0 0 492.004 492.004" id="icon-long-arrow" xmlns="http://www.w3.org/2000/svg"><path d="M484.14 226.886L306.46 49.202c-5.072-5.072-11.832-7.856-19.04-7.856-7.216 0-13.972 2.788-19.044 7.856l-16.132 16.136c-5.068 5.064-7.86 11.828-7.86 19.04 0 7.208 2.792 14.2 7.86 19.264L355.9 207.526H26.58C11.732 207.526 0 219.15 0 234.002v22.812c0 14.852 11.732 27.648 26.58 27.648h330.496L252.248 388.926c-5.068 5.072-7.86 11.652-7.86 18.864 0 7.204 2.792 13.88 7.86 18.948l16.132 16.084c5.072 5.072 11.828 7.836 19.044 7.836 7.208 0 13.968-2.8 19.04-7.872l177.68-177.68c5.084-5.088 7.88-11.88 7.86-19.1.016-7.244-2.776-14.04-7.864-19.12z"/></symbol><symbol viewBox="0 0 123.3 85.6" id="icon-mail-white" xmlns="http://www.w3.org/2000/svg"><path d="M123.2 7.3c0-2.5-1.3-4.7-3.2-6.1-1.2-.8-2.6-1.2-4.1-1.2H7.3C5.8 0 4.4.5 3.2 1.2 1.3 2.5 0 4.7 0 7.2v71.1c0 4 3.3 7.3 7.3 7.3H116c.5 0 1-.1 1.5-.1.5-.1.9-.2 1.4-.4l.6-.3c.8-.4 1.6-1.1 2.2-1.8.1-.2.3-.4.4-.6.5-.8.9-1.7 1.1-2.6.1-.5.1-1 .1-1.5l-.1-71zm-14.6 7.3v56.5H14.5V14.6h94.1z"/><path d="M85.7 42.8l17-17c1.3-1.3 1.3-3.5 0-4.8s-3.5-1.3-4.8 0L61.6 57.3 25.3 21c-1.3-1.3-3.5-1.3-4.8 0s-1.3 3.5 0 4.8l17 17-17 17c-1.3 1.3-1.3 3.5 0 4.8s3.5 1.3 4.8 0l17-17 17 17c.7.7 1.5 1 2.4 1s1.7-.3 2.4-1l17-17 17 17c1.3 1.3 3.5 1.3 4.8 0s1.3-3.5 0-4.8l-17.2-17z"/></symbol><symbol viewBox="0 0 126 105" id="icon-share" xmlns="http://www.w3.org/2000/svg"><path d="M81 46.4V70l45-35L81 0v23.3c-30.5 3.5-54.6 27.9-57.6 58.6C36 61.7 57.6 48.4 81 46.4z"/><path d="M93.6 76.3v14.2H14.5V34h18c.1-.1.2-.3.4-.4C38.5 27.9 45 23.1 52 19.4H7.3c-1.5 0-2.9.5-4.1 1.2-1.9 1.3-3.2 3.5-3.2 6v71.1c0 4 3.3 7.3 7.3 7.3H101c4 0 7.3-3.3 7.3-7.3V64.9L93.6 76.3z"/></symbol></svg>